<svg xmlns="http://www.w3.org/2000/svg" width="141" height="37" viewBox="0 0 141 37" fill="none"><path d="M37.6782 18.5C37.6782 28.7147 29.2411 37 18.8391 37C8.43715 37 0 28.7147 0 18.5C0 8.28528 8.43715 0 18.8391 0C29.2411 0 37.6782 8.28528 37.6782 18.5ZM32.9395 10.2431L32.5639 9.98773L32.3039 9.95936H31.5526H31.2926H31.0325L30.5124 10.2147L29.7323 10.6971L28.6921 11.4632L27.6519 12.2293L26.4094 13.2224L21.9597 16.8259L20.775 16.8543L15.863 16.4287L12.6557 16.2301L12.309 16.3152L8.72609 18.273L8.55272 18.5L8.52383 18.6986L8.72609 18.8121L15.8919 22.2738L12.309 25.8206L7.85926 25.2814L6.96354 25.3098L4.65199 26.8137L4.53641 27.2393L9.21729 29.339H10.0841L12.3379 28.3459L18.4346 25.1112L25.6871 19.0391L30.8014 14.556L32.3906 12.9954L32.824 12.2577L33.084 11.7753L33.3441 11.0092V10.7538L33.2285 10.4985L32.9395 10.2431Z" fill="#EB5C24"></path><path d="M49.3795 4.90877C49.4373 6.32748 48.3682 7.46245 46.6634 7.46245C45.1609 7.46245 44.0918 6.32748 44.0918 4.90877C44.0918 3.43331 45.1898 2.29834 46.7501 2.29834C48.3682 2.29834 49.3795 3.43331 49.3795 4.90877ZM44.6408 34.3329V11.3497H48.8883V34.3045H44.6408V34.3329Z" fill="#EB5C24"></path><path d="M61.0538 4.76685V11.3497H67.1505V14.5276H61.0538V26.8987C61.0538 29.7362 61.8629 31.3535 64.2322 31.3535C65.3302 31.3535 66.1681 31.2116 66.6882 31.0698L66.8905 34.1909C66.0814 34.5314 64.7523 34.7584 63.1342 34.7584C61.1405 34.7584 59.5513 34.1342 58.54 32.9992C57.3265 31.7791 56.893 29.7362 56.893 27.0122V14.5276H53.2812V11.3497H56.893V5.84507L61.0538 4.76685Z" fill="#EB5C24"></path><path d="M76.6861 4.90877C76.7439 6.32748 75.6748 7.46245 73.97 7.46245C72.4675 7.46245 71.3984 6.32748 71.3984 4.90877C71.3984 3.43331 72.4964 2.29834 74.0567 2.29834C75.6459 2.29834 76.6861 3.43331 76.6861 4.90877ZM71.9474 34.3329V11.3497H76.1949V34.3045H71.9474V34.3329Z" fill="#EB5C24"></path><path d="M83.2441 0.624268H87.4916V34.3045H83.2441V0.624268Z" fill="#767676"></path><path d="M99.397 4.90877C99.4548 6.32748 98.3857 7.46245 96.681 7.46245C95.1785 7.46245 94.1094 6.32748 94.1094 4.90877C94.1094 3.43331 95.2074 2.29834 96.7676 2.29834C98.3568 2.29834 99.397 3.43331 99.397 4.90877ZM94.6584 34.3329V11.3497H98.9058V34.3045H94.6584V34.3329Z" fill="#767676"></path><path d="M111.069 4.76685V11.3497H117.166V14.5276H111.069V26.8987C111.069 29.7362 111.878 31.3535 114.248 31.3535C115.346 31.3535 116.184 31.2116 116.704 31.0698L116.906 34.1909C116.097 34.5314 114.768 34.7584 113.15 34.7584C111.156 34.7584 109.567 34.1342 108.556 32.9992C107.342 31.7791 106.909 29.7362 106.909 27.0122V14.5276H103.297V11.3497H106.909V5.84507L111.069 4.76685Z" fill="#767676"></path><path d="M124.014 23.6075C124.101 29.254 127.77 31.5807 132.047 31.5807C135.08 31.5807 136.93 31.0699 138.519 30.389L139.241 33.3683C137.739 34.0209 135.196 34.787 131.469 34.787C124.274 34.787 119.969 30.1336 119.969 23.2103C119.969 16.287 124.13 10.8391 130.949 10.8391C138.577 10.8391 140.599 17.4219 140.599 21.6497C140.599 22.5009 140.513 23.1819 140.455 23.6075H124.014ZM136.496 20.5998C136.554 17.9327 135.398 13.8184 130.602 13.8184C126.297 13.8184 124.418 17.7057 124.072 20.5998H136.496Z" fill="#767676"></path></svg>